<?xml version="1.0" encoding="UTF-8"?>
<!DOCTYPE svg PUBLIC "-//W3C//DTD SVG 1.1//EN" "http://www.w3.org/Graphics/SVG/1.1/DTD/svg11.dtd">
<!-- Creator: CorelDRAW 2019 (64-Bit) -->
<svg xmlns="http://www.w3.org/2000/svg" xml:space="preserve" width="100%" height="100%" version="1.1" style="shape-rendering:geometricPrecision; text-rendering:geometricPrecision; image-rendering:optimizeQuality; fill-rule:evenodd; clip-rule:evenodd"
viewBox="0 0 7841.46 2258.74"
 xmlns:xlink="http://www.w3.org/1999/xlink"
 xmlns:xodm="http://www.corel.com/coreldraw/odm/2003">
 <defs>
  <style type="text/css">
   <![CDATA[
    .fil0 {fill:#0E46B9;fill-rule:nonzero}
   ]]>
  </style>
 </defs>
 <g id="Layer_x0020_1">
  <metadata id="CorelCorpID_0Corel-Layer"/>
  <g id="_1932410266752">
   <path class="fil0" d="M1494.45 676.1c-9.55,-15.61 -19.47,-30.72 -29.87,-45.48 -10.37,-14.74 -21.22,-29.1 -32.6,-43.21 -11.19,-13.78 -22.81,-27.12 -34.79,-40.06 -11.99,-13.02 -24.34,-25.43 -37.28,-37.52 -12.49,-11.83 -25.56,-23.36 -38.84,-34.32 -13.28,-10.93 -26.93,-21.4 -40.77,-31.33 -13.76,-9.87 -27.86,-19.26 -42.23,-28.13 -7.7,-4.84 -15.58,-9.45 -23.5,-13.94 -6.4,-3.73 -13.04,-7.38 -19.98,-11.01 -13.94,-7.38 -28.31,-14.53 -42.89,-20.98 -14.23,-6.46 -28.6,-12.38 -42.94,-17.73 -14.31,-5.42 -28.68,-10.19 -43.07,-14.58 -14.05,-4.29 -28.28,-8.12 -42.49,-11.43 -13.94,-3.36 -27.99,-6.14 -41.96,-8.63 -13.84,-2.33 -27.6,-4.31 -41.35,-5.85 -13.63,-1.51 -27.17,-2.54 -40.53,-3.25 -13.47,-0.71 -26.8,-1.03 -39.87,-0.98 -13.12,0.11 -26.06,0.53 -38.84,1.3 -12.91,0.82 -25.53,1.91 -38.02,3.39 -12.51,1.48 -24.82,3.23 -37.02,5.27 -12.09,2.09 -23.97,4.42 -35.88,7.12 -11.75,2.7 -23.39,5.58 -35,8.78 -11.4,3.15 -22.6,6.61 -33.73,10.29 -11.11,3.68 -22.07,7.54 -32.81,11.83 -10.69,4.13 -21.25,8.41 -31.67,13.04 -10.35,4.68 -20.51,9.42 -30.59,14.45 -9.92,4.97 -19.79,10.19 -29.61,15.61 -9.58,5.32 -19.02,10.9 -28.34,16.59 -9.34,5.74 -18.39,11.67 -27.38,17.78 -9,6.06 -17.67,12.25 -26.3,18.65 -8.65,6.35 -17.09,12.96 -25.29,19.69 -8.28,6.61 -16.27,13.49 -24.29,20.4 -7.88,7.04 -15.64,14.05 -23.23,21.4 -7.46,7.22 -14.9,14.58 -22.15,22.07 -7.25,7.49 -14.23,15.08 -21.22,22.94 -6.96,7.7 -13.63,15.56 -20.19,23.57 -6.61,7.96 -13.02,16.06 -19.31,24.39 -6.14,8.12 -12.3,16.43 -18.2,24.95 -5.93,8.39 -11.72,16.96 -17.36,25.59 -5.53,8.73 -11.01,17.46 -16.35,26.41 -2.8,4.71 -5.66,9.55 -8.44,14.47 -2.28,4 -4.58,8.18 -6.88,12.36 -4.76,8.63 -9.45,17.62 -13.94,26.67 -4.45,8.76 -8.73,17.78 -12.91,26.72 -4.02,8.89 -7.96,17.83 -11.75,26.88 -3.7,8.89 -7.3,17.89 -10.69,26.86 -3.39,8.92 -6.64,17.97 -9.68,26.91 -3.15,9 -5.98,17.94 -8.73,26.88 -2.75,9 -5.32,18.04 -7.75,26.93 -2.43,9.1 -4.66,18.1 -6.83,27.01 -2.12,9.02 -4.13,18.04 -5.95,26.93 -1.75,9.1 -3.57,18.04 -5,26.99 -1.64,9 -2.99,18.04 -4.23,27.01 -1.19,9 -2.38,18.04 -3.36,26.99 -0.98,9.05 -1.83,18.07 -2.51,27.07 -0.69,8.94 -1.24,17.99 -1.72,26.99 -0.37,9.05 -0.69,17.97 -0.82,27.07 -0.21,8.89 -0.21,17.94 -0.11,26.88 0.13,9.05 0.4,18.07 0.77,27.12 0.4,8.92 0.93,18.02 1.56,27.04 0.66,8.97 1.46,17.99 2.38,26.99 0.93,9.08 2.04,18.02 3.28,26.96 1.22,9.15 2.67,18.1 4.05,27.12 1.53,9.08 3.15,18.15 4.97,27.07 1.75,9.1 3.7,18.07 5.82,27.07 2.12,9.1 4.39,18.1 6.67,27.07 2.51,9.08 5.08,18.1 7.75,27.07 2.73,9.1 5.64,18.15 8.68,27.17 3.02,9.08 6.27,18.04 9.6,26.99 3.39,9.15 6.99,18.2 10.74,27.2 3.73,9 7.7,18.04 11.77,27.01 4.07,9.1 8.47,18.12 12.91,27.01 4.45,9.18 9.21,18.12 14.02,27.07 2.73,4.97 5.45,9.87 8.2,14.66 2.28,4.1 4.66,8.12 6.88,11.99 5.27,8.97 10.74,17.65 16.22,26.3 5.53,8.57 11.27,17.07 17.04,25.35 5.87,8.44 11.8,16.77 18.04,24.92 6.22,8.2 12.54,16.22 19,24.13 6.51,7.96 13.18,15.85 19.9,23.52 6.91,7.78 13.84,15.43 20.98,22.91 7.2,7.49 14.53,14.84 21.91,21.96 7.65,7.36 15.29,14.47 23.1,21.35 7.81,7.04 15.82,13.89 23.89,20.56 8.26,6.75 16.64,13.26 25.03,19.63 8.57,6.51 17.3,12.7 26.09,18.79 8.94,6.11 18.04,12.09 27.17,17.83 9.26,5.79 18.68,11.38 28.28,16.8 9.58,5.45 19.39,10.77 29.26,15.74 10.08,5.03 20.16,9.97 30.45,14.53 10.32,4.76 20.85,9.23 31.43,13.41 10.74,4.23 21.64,8.28 32.62,11.93 11.11,3.84 22.41,7.38 33.87,10.64 11.35,3.25 22.99,6.24 34.66,8.94 11.96,2.83 23.87,5.24 35.82,7.46 12.33,2.09 24.63,4.02 36.99,5.56 12.62,1.51 25.24,2.73 38.02,3.65 12.83,0.87 25.88,1.43 38.92,1.61 13.23,0.19 26.56,-0.08 39.93,-0.66 56.91,-2.59 84.19,-58.98 58.66,-124.57 -24.84,-64.08 -89.3,-107.95 -141.82,-99.77 -9.34,1.43 -18.6,2.67 -27.99,3.57 -9.21,0.79 -18.36,1.46 -27.54,1.85 -9.13,0.32 -18.18,0.37 -27.09,0.26 -9.02,-0.26 -17.91,-0.58 -26.86,-1.19 -8.68,-0.74 -17.46,-1.61 -26.17,-2.73 -8.57,-1.11 -17.12,-2.49 -25.61,-4.02 -8.44,-1.59 -16.7,-3.33 -25.11,-5.27 -8.18,-1.98 -16.38,-4.15 -24.55,-6.54 -8.02,-2.35 -15.98,-4.95 -23.79,-7.65 -7.88,-2.75 -15.64,-5.72 -23.39,-8.76 -7.54,-3.12 -15.08,-6.4 -22.54,-9.84 -7.38,-3.33 -14.68,-6.99 -21.91,-10.77 -7.09,-3.76 -14.21,-7.65 -21.22,-11.67 -6.91,-4.05 -13.81,-8.28 -20.53,-12.62 -6.72,-4.34 -13.34,-8.86 -19.84,-13.49 -6.46,-4.58 -12.75,-9.37 -19.02,-14.23 -6.35,-4.97 -12.49,-9.95 -18.44,-15 -6.03,-5.19 -11.93,-10.48 -17.67,-15.8 -5.79,-5.45 -11.38,-10.95 -17.01,-16.62 -5.53,-5.61 -10.95,-11.35 -16.27,-17.2 -5.32,-5.85 -10.48,-11.83 -15.45,-17.91 -5.16,-6.11 -10.11,-12.25 -14.98,-18.71 -4.76,-6.16 -9.47,-12.65 -14.08,-19.16 -4.6,-6.61 -9.08,-13.2 -13.52,-20.06 -1.96,-3.04 -3.89,-6.16 -5.85,-9.29 -2.38,-3.76 -4.68,-7.51 -6.88,-11.24 -4.13,-7.04 -8.1,-14.05 -11.83,-21.01 -3.86,-7.12 -7.54,-14.1 -10.95,-21.11 -3.41,-7.17 -6.77,-14.13 -9.97,-21.19 -3.25,-7.17 -6.19,-14.23 -9.13,-21.4 -2.86,-7.04 -5.56,-14.26 -8.2,-21.35 -2.59,-7.17 -5,-14.26 -7.36,-21.48 -2.33,-7.12 -4.47,-14.37 -6.54,-21.59 -2.09,-7.14 -4.02,-14.31 -5.74,-21.48 -1.85,-7.22 -3.52,-14.5 -5.11,-21.7 -1.46,-7.3 -2.88,-14.5 -4.23,-21.72 -1.24,-7.3 -2.49,-14.53 -3.47,-21.8 -1.03,-7.22 -2.01,-14.58 -2.78,-21.85 -0.82,-7.2 -1.56,-14.55 -2.12,-21.78 -0.53,-7.3 -0.98,-14.5 -1.35,-21.85 -0.32,-7.25 -0.56,-14.66 -0.64,-21.93 -0.08,-7.17 -0.08,-14.58 0.08,-21.75 0.11,-7.33 0.42,-14.68 0.74,-22.01 0.4,-7.17 0.79,-14.47 1.53,-21.75 0.53,-7.28 1.35,-14.55 2.14,-21.8 0.79,-7.2 1.72,-14.53 2.86,-21.75 1.08,-7.17 2.25,-14.53 3.6,-21.72 1.32,-7.25 2.8,-14.5 4.37,-21.67 1.61,-7.17 3.25,-14.45 5.05,-21.46 1.88,-7.36 3.81,-14.53 5.85,-21.54 2.17,-7.28 4.29,-14.37 6.69,-21.51 2.35,-7.17 4.79,-14.31 7.36,-21.3 2.62,-7.14 5.37,-14.21 8.28,-21.17 2.88,-7.17 5.9,-14.18 9.1,-21.17 3.18,-7.04 6.48,-13.94 9.97,-21.03 3.41,-6.88 7.12,-13.89 10.87,-20.8 3.7,-6.91 7.7,-13.86 11.75,-20.69 1.91,-3.2 3.78,-6.24 5.72,-9.5 2.33,-3.62 4.74,-7.33 7.12,-11.06 4.5,-6.88 9.08,-13.65 13.73,-20.21 4.71,-6.61 9.47,-13.07 14.37,-19.31 4.95,-6.48 10,-12.67 14.95,-18.71 5.32,-6.3 10.5,-12.3 15.93,-18.2 5.4,-5.85 10.9,-11.62 16.43,-17.15 5.58,-5.69 11.3,-11.22 17.15,-16.64 5.9,-5.32 11.88,-10.64 17.97,-15.77 6.06,-5.21 12.2,-10.19 18.47,-15.08 6.35,-4.87 12.78,-9.6 19.34,-14.21 6.54,-4.55 13.18,-9.05 19.95,-13.34 6.8,-4.31 13.68,-8.57 20.61,-12.46 7.12,-4.18 14.26,-8.02 21.48,-11.67 7.22,-3.68 14.58,-7.28 21.88,-10.58 7.59,-3.44 15.13,-6.61 22.78,-9.66 7.7,-2.99 15.5,-5.95 23.42,-8.63 7.88,-2.65 15.85,-5.11 23.89,-7.43 8.12,-2.33 16.38,-4.47 24.69,-6.32 8.26,-1.93 16.72,-3.6 25.19,-5.13 8.41,-1.4 17.01,-2.7 25.74,-3.78 8.63,-1.03 17.38,-1.8 26.19,-2.38 8.84,-0.66 17.78,-1.03 26.62,-1.08 9.1,-0.11 18.2,0.05 27.25,0.53 9.18,0.37 18.26,1.14 27.36,2.06 9.45,0.93 18.76,2.17 27.89,3.68 9.47,1.61 18.89,3.36 28.13,5.48 9.55,2.17 19.05,4.6 28.47,7.25 9.42,2.86 18.92,5.93 28.42,9.23 9.53,3.41 18.97,7.14 28.58,11.17 9.45,4.05 19.08,8.57 28.5,13.34 9.42,4.71 18.94,9.92 28.34,15.4 9.45,5.58 18.86,11.43 28.15,17.73 4.29,2.8 8.44,5.72 12.67,8.78 5.03,3.57 10.11,7.38 15.11,11.11 9.34,7.28 18.26,14.63 27.01,22.23 8.89,7.81 17.57,15.77 25.8,23.92 8.41,8.39 16.59,16.96 24.29,25.69 8.07,9 15.72,18.1 23.15,27.57 7.33,9.34 14.47,19.05 21.3,28.92 6.85,9.87 13.44,20 19.74,30.43 6.3,10.4 12.33,21.03 18.1,31.88 5.64,10.85 11.03,21.91 16.17,33.07 5.11,11.38 9.82,22.78 14.31,34.37 4.5,11.72 8.63,23.44 12.41,35.32 3.84,11.99 7.28,24.05 10.45,36.25 3.15,12.25 5.95,24.61 8.39,36.94 2.38,12.51 4.52,24.95 6.16,37.47 1.75,12.67 3.1,25.27 4.18,38.05 0.98,12.67 1.67,25.4 2.01,38.23 0.21,12.62 0.21,25.43 -0.24,38.07 -0.4,12.75 -1.22,25.48 -2.3,38.23 -1.16,12.62 -2.65,25.24 -4.47,37.86 -1.83,12.46 -3.94,24.95 -6.61,37.44 -2.51,12.28 -5.37,24.58 -8.6,36.83 -3.2,12.01 -6.77,24.02 -10.64,35.93 -3.89,11.85 -8.18,23.6 -12.67,35.11 -4.55,11.56 -9.37,22.89 -14.5,33.89 -5.21,11.32 -10.74,22.25 -16.43,32.81 -31.25,58.16 1.16,136.6 75.57,178.86 79.11,44.69 177.93,33.5 217.09,-29.5 9.68,-15.61 18.76,-31.43 27.31,-47.47 8.76,-16.22 16.88,-32.81 24.42,-49.53 7.7,-17.07 14.82,-34.24 21.35,-51.54 6.56,-17.62 12.62,-35.37 18.07,-53.39 5.45,-18.07 10.37,-36.2 14.66,-54.53 4.34,-18.6 8.02,-37.23 11.17,-56.09 3.2,-18.71 5.64,-37.54 7.65,-56.49 1.83,-19.08 3.2,-38.21 3.92,-57.44 0.71,-18.97 0.77,-38.07 0.37,-57.26 -0.61,-19.13 -1.67,-38.23 -3.41,-57.36 -1.8,-18.92 -4.13,-37.99 -7.12,-56.89 -2.96,-18.76 -6.51,-37.47 -10.58,-55.96 -4.21,-18.65 -8.92,-36.94 -14.13,-54.87 -5.37,-18.23 -11.24,-36.12 -17.73,-53.84 -6.4,-17.62 -13.47,-34.98 -20.93,-51.91 -7.49,-17.04 -15.56,-33.76 -24.08,-50.19 -8.59,-16.41 -17.58,-32.39 -27.08,-47.95z"/>
   <path class="fil0" d="M1197.45 4.17c-250.06,-22.6 -483.61,48.37 -674.85,172.51 -314.13,199.54 -522.6,550.7 -522.6,950.46 0,224.47 65.8,433.6 179.02,609.15 219.15,346.47 664.55,606.66 1153.58,497.07 259.72,-48.37 488.05,-185.9 652.09,-379.76 361.74,-398.25 377.72,-978.16 47.92,-1392.4 -191.58,-260.47 -492.49,-435.42 -835.16,-457.03zm193.89 1924.18l-760.94 -846.27c-22.67,-25.21 -58.31,-23.87 -79.56,1.96 -20.82,25.27 -20.82,65.38 0,90.59l685.61 831.88c-228.18,87.63 -458.55,64.14 -646.67,-23.52 -170.58,-79.64 -311.65,-214.44 -404.47,-383.43 -82.05,-149.54 -119.49,-314.11 -119.51,-470.24 0.03,-155.97 37.47,-320.6 119.51,-470.16 92.82,-168.99 233.89,-303.79 404.47,-383.41 209.66,-97.74 472.63,-115.83 724.77,10.95 313.93,157.96 501.07,477.44 501.31,842.62 -0.23,331.19 -155.73,627.76 -424.52,799.03z"/>
   <path class="fil0" d="M1131.78 1006.86c-4.34,-19.98 -9.79,-39.71 -16.25,-58.95 -6.46,-19.16 -13.94,-37.94 -22.38,-56.07 -8.47,-18.2 -17.83,-35.67 -28.34,-52.65 -10.21,-16.7 -21.4,-32.86 -33.47,-48.15 -11.99,-15.19 -24.77,-29.66 -38.42,-43.26 -13.52,-13.44 -27.65,-25.93 -42.6,-37.62 -14.79,-11.54 -29.95,-21.88 -45.38,-31.22 -15.19,-9 -30.64,-17.07 -46.33,-24 -15.37,-6.85 -31.06,-12.65 -46.7,-17.44 -15.48,-4.66 -31.01,-8.36 -46.57,-11.27 -15.29,-2.75 -30.59,-4.5 -45.8,-5.53 -15,-0.87 -29.92,-0.87 -44.71,-0.16 -14.61,0.71 -29.08,2.22 -43.37,4.55 -14.05,2.25 -28.02,5.27 -41.7,9 -13.55,3.68 -26.83,7.99 -39.9,12.96 -12.91,4.95 -25.56,10.58 -37.99,16.8 -12.25,6.09 -24.18,12.75 -35.82,20.11 -11.54,7.17 -22.83,15.03 -33.73,23.31 -10.77,8.28 -21.19,17.07 -31.41,26.33 -10,9.18 -19.61,18.89 -28.95,29.13 -9.29,10.03 -18.18,20.61 -26.75,31.72 -8.36,10.95 -16.48,22.33 -24.13,34.21 -7.7,11.75 -14.68,23.71 -21.25,35.82 -6.51,12.09 -12.54,24.29 -17.97,36.75 -5.5,12.25 -10.42,24.66 -14.9,37.15 -4.48,12.49 -8.49,25.06 -11.99,37.73 -3.52,12.62 -6.56,25.32 -9.21,38.13 -2.59,12.62 -4.76,25.43 -6.51,38.23 -1.72,12.75 -2.96,25.59 -3.78,38.39 -0.93,12.75 -1.35,25.64 -1.35,38.44 0,12.91 0.48,25.8 1.35,38.6 0.79,12.75 2.04,25.61 3.78,38.31 1.75,12.83 3.92,25.64 6.51,38.31 2.65,12.75 5.69,25.45 9.21,38.07 3.49,12.67 7.49,25.24 11.99,37.73 4.5,12.49 9.45,24.92 14.9,37.23 5.42,12.38 11.46,24.58 17.97,36.62 6.56,12.12 13.55,24.13 21.25,35.85 7.65,11.91 15.77,23.31 24.13,34.18 8.52,11.06 17.46,21.67 26.75,31.75 9.34,10.16 18.94,19.92 28.95,29.1 10.21,9.34 20.61,18.04 31.41,26.33 10.9,8.28 22.17,16.11 33.73,23.31 11.62,7.33 23.57,14 35.82,20.16 12.44,6.24 25.06,11.8 37.99,16.75 13.07,4.97 26.35,9.37 39.9,12.94 13.71,3.81 27.65,6.83 41.75,9.08 14.23,2.3 28.73,3.78 43.31,4.52 14.82,0.77 29.66,0.66 44.71,-0.24 39.85,-2.51 63.34,-42.49 51.14,-88.82 -12.14,-45.72 -53.95,-77.73 -92.08,-72.15 -10.13,1.48 -20.16,2.38 -30.19,2.73 -9.92,0.37 -19.84,0.08 -29.71,-0.69 -9.66,-0.71 -19.42,-2.06 -28.95,-3.89 -9.55,-1.75 -18.84,-4.07 -28.13,-6.83 -9.21,-2.75 -18.2,-6.01 -27.04,-9.71 -8.81,-3.68 -17.38,-7.78 -25.88,-12.3 -8.28,-4.55 -16.46,-9.53 -24.5,-14.9 -7.86,-5.32 -15.61,-11.17 -23.05,-17.25 -7.44,-6.08 -14.63,-12.67 -21.62,-19.63 -6.91,-6.8 -13.57,-14.05 -20.03,-21.7 -6.35,-7.62 -12.51,-15.66 -18.39,-24.08 -5.87,-8.33 -11.32,-16.91 -16.27,-25.59 -5,-8.57 -9.66,-17.36 -13.84,-26.27 -4.21,-8.84 -8.07,-17.81 -11.48,-26.88 -3.52,-9.02 -6.56,-18.2 -9.37,-27.46 -2.75,-9.23 -5.11,-18.44 -7.17,-27.86 -2.01,-9.37 -3.68,-18.73 -5.08,-28.2 -1.32,-9.45 -2.35,-18.94 -2.94,-28.5 -0.74,-9.45 -1.01,-18.97 -1.01,-28.58 0,-9.5 0.26,-18.97 1.01,-28.5 0.58,-9.47 1.64,-19.02 2.94,-28.44 1.43,-9.45 3.07,-18.92 5.08,-28.2 2.06,-9.39 4.45,-18.68 7.17,-27.91 2.78,-9.21 5.85,-18.36 9.37,-27.44 3.41,-9.05 7.25,-18.07 11.48,-26.88 4.18,-8.92 8.84,-17.73 13.84,-26.3 4.97,-8.63 10.42,-17.15 16.27,-25.56 5.9,-8.44 12.04,-16.4 18.39,-24.1 6.46,-7.59 13.12,-14.84 20.03,-21.75 7.01,-6.93 14.18,-13.39 21.62,-19.58 7.43,-6.14 15.19,-11.88 23.05,-17.2 8.04,-5.42 16.22,-10.37 24.5,-14.84 8.47,-4.6 17.07,-8.76 25.88,-12.41 8.86,-3.78 17.86,-6.96 27.04,-9.76 9.18,-2.7 18.55,-5 28.13,-6.77 9.5,-1.83 19.29,-3.15 28.95,-3.92 9.87,-0.71 19.79,-0.98 29.71,-0.66 10.03,0.32 20.06,1.19 30.19,2.7 10.13,1.53 20.32,3.62 30.37,6.3 10.19,2.75 20.29,6.06 30.32,10.03 10.11,4.07 20.16,8.78 30.03,14.05 10.03,5.48 19.84,11.54 29.45,18.31 9.71,6.85 19.24,14.34 28.47,22.7 9.37,8.36 18.2,17.2 26.51,26.56 8.36,9.39 16.17,19.31 23.39,29.61 7.3,10.35 14.08,21.14 20.24,32.23 6.16,11.19 11.77,22.81 16.8,34.61 5.08,11.88 9.47,24.13 13.28,36.51 3.84,12.54 7.06,25.19 9.55,38.13 2.59,12.78 4.55,25.88 5.85,39 1.24,13.12 1.96,26.35 1.96,39.53 0,13.28 -0.71,26.51 -1.96,39.61 -1.3,13.18 -3.25,26.19 -5.85,39.11 -2.57,12.86 -5.74,25.61 -9.55,38.05 -14,45.75 13.23,97.45 62.68,116.6 51.73,20 108.77,-2.59 125.36,-51.91 6.46,-19.29 11.91,-38.97 16.25,-58.9 4.39,-20.03 7.7,-40.35 9.87,-60.77 2.17,-20.51 3.31,-41.17 3.31,-61.81 0,-20.56 -1.08,-41.2 -3.31,-61.7 -2.13,-20.46 -5.43,-40.73 -9.83,-60.81z"/>
   <rect class="fil0" x="6346.98" y="520.71" width="320.36" height="1196.34"/>
   <path class="fil0" d="M3431.22 992.31c0,-242.57 -58.79,-497.39 -423.89,-497.39 -166.66,0 -306.28,51.38 -372.43,90.59l58.79 215.66c71.09,-44.16 149.46,-68.63 245.03,-68.63 112.71,0 169.1,68.63 169.1,161.71l0 26.96c-271.99,2.46 -548.85,132.32 -548.85,445.9 0,213.25 134.75,365.18 316.04,365.18 105.36,0 198.49,-44.13 264.64,-137.27l4.9 0.01 17.17 117.61 289.14 -0.01c-14.74,-80.83 -19.61,-178.91 -19.61,-274.4l0 -445.92 -0.03 0zm-313.63 345.44c0,19.63 -2.43,39.21 -7.33,56.38 -22.07,71.07 -80.88,102.95 -132.32,102.95 -49.03,0 -115.17,-44.13 -115.17,-164.17 0,-166.61 147.06,-200.95 254.82,-203.39l0 208.23z"/>
   <circle class="fil0" cx="6507.16" cy="232.32" r="172.59"/>
   <path class="fil0" d="M7646.09 1559.49c67.07,-94.46 113.64,-234.47 113.64,-437.94 0,-372.59 -169.33,-607.25 -447.49,-607.25 -234.79,0 -457.25,188.73 -457.25,614.49 0,384.6 169.33,607.19 452.41,607.19 44.69,0 95.3,-7.59 146.08,-26.54 66.83,68.74 139.09,137.66 208.41,196.56l179.57 -193.83c-61.83,-49.46 -130.12,-99.76 -195.37,-152.68zm-331.47 -65.4c-113.64,0 -145.2,-169.36 -145.2,-372.53 0,-162.16 24.26,-367.72 140.41,-367.72 106.42,0 133.03,205.58 133.03,367.72 0,174.2 -26.61,372.53 -128.24,372.53z"/>
   <path class="fil0" d="M5828.06 501.08c-115.04,0 -190.92,53.79 -249.53,139.46l-4.97 0 0 -616.48 -320.41 0 0 1338.21c0,115.07 -4.79,249.61 -9.84,354.78l274.07 0 17.04 -141.95 7.41 0c63.61,120.02 134.57,161.55 234.92,161.55 222.57,0 388.81,-232.44 388.81,-650.82 0,-322.86 -105.04,-584.75 -337.5,-584.75zm-132.13 973.77c-39.08,0 -83.24,-24.47 -110.01,-109.99 -7.36,-17.22 -12.36,-46.62 -12.36,-75.96l0 -335.14c0,-22.01 4.97,-53.84 12.36,-73.47 16.99,-58.66 58.63,-110.07 107.5,-110.07 107.58,0 154.17,134.57 154.17,340.12 0.02,229.97 -43.98,364.51 -151.66,364.51z"/>
   <path class="fil0" d="M4753.77 499.52c-61.28,0 -120.09,14.68 -169.1,41.62 -46.57,29.42 -90.67,73.5 -120.09,120.07l-4.89 0c-41.62,-100.46 -127.4,-161.69 -262.18,-161.69 -124.96,0 -225.4,68.58 -286.68,159.25l-4.89 0 -14.68 -139.65 -279.38 0.01c2.49,112.71 9.79,227.86 9.79,360.18l0 837.99 318.56 -0.01 0 -754.7c0,-34.26 4.87,-68.58 12.22,-90.65 22.07,-71.09 71.09,-107.84 120.07,-107.84 100.46,0 110.28,115.2 110.28,200.95l0 752.24 318.53 0 0 -759.59c0,-31.83 4.92,-66.15 9.79,-83.29 22.04,-71.07 63.69,-110.28 120.07,-110.28 97.98,0 112.71,110.28 112.71,247.49l0 705.7 318.53 0 0 -759.62c0.06,-289.11 -95.51,-458.18 -308.66,-458.18z"/>
  </g>
 </g>
</svg>
